<svg id="97b9f75a-f78e-44cd-901f-179d16b4fcf9" data-name="Layer 1" xmlns="http://www.w3.org/2000/svg" width="100" height="100" viewBox="0 0 100 100">
  <title>icon</title>
  <circle cx="50" cy="50" r="50" style="fill: #2870b7"/>
  <g>
    <g>
      <g>
        <path d="M41.36,80.311a10.2251,10.2251,0,0,1-7.2745-3.0122L21.55,64.7637a10.3066,10.3066,0,0,1,0-14.5537l14.1006-14.1c3.7148-3.7149,7.457-5.5987,11.123-5.5987a10.0569,10.0569,0,0,1,5.4268,1.583l4.543-4.541a4.5484,4.5484,0,0,1,6.4365,0l.0532.0537c5.7485-4.2329,9.6333-6.2915,11.8716-6.2915a2.2131,2.2131,0,0,1,1.6294.5884c1.6308,1.6309-.1719,6.11-5.5132,13.689l.0737.0742a4.5536,4.5536,0,0,1-.0005,6.437L66.74,46.6587c1.5957,2.5166,3.8965,8.6377-4.0029,16.5376L48.6367,77.2974A10.2277,10.2277,0,0,1,41.36,80.311Zm5.414-46.9467c-2.8813,0-5.9448,1.6025-9.105,4.7631l-14.1015,14.1a7.4483,7.4483,0,0,0,0,10.5181L36.1035,75.2808a7.4378,7.4378,0,0,0,10.5156-.0015L60.72,61.1787c8.2754-8.2749,3.3472-13.4375,3.1333-13.6533L51.3213,34.9932A6.89,6.89,0,0,0,46.7744,33.3643ZM64.8623,44.5024l4.415-4.4145a1.7015,1.7015,0,0,0,0-2.4028l-8.1157-8.1133a1.7438,1.7438,0,0,0-2.4,0l-4.4145,4.4141Zm4.31-10.9585c2.9438-4.2661,4.8491-7.8247,5.2758-9.3354-1.497.4561-4.9965,2.4253-9.1713,5.4419Z" style="fill: #fff"/>
        <path d="M75.105,21.7125a1.8265,1.8265,0,0,1,1.349.472c1.4725,1.4725-.4688,6.0038-5.749,13.453l.31.31a4.1587,4.1587,0,0,1,0,5.877l-4.7829,4.7823c1.4538,2.1308,4.274,8.26-3.7746,16.3093L48.3564,77.0173a9.895,9.895,0,0,1-13.99.0013L21.8307,64.4833a9.9089,9.9089,0,0,1,0-13.9929l14.1-14.1c3.6376-3.6376,7.2856-5.4826,10.8429-5.4826a9.5677,9.5677,0,0,1,5.4768,1.6976l4.7732-4.7719a4.1528,4.1528,0,0,1,5.8757,0l.2949.2955c5.7572-4.2643,9.75-6.4163,11.9105-6.4163M69.2274,34.16c3.23-4.6283,5.69-9.1247,5.7082-10.4491-1.3185.0453-5.7392,2.5841-10.2673,5.8919L69.2274,34.16m-4.3652,10.903,4.6956-4.6949a2.0978,2.0978,0,0,0,0-2.9631L61.442,29.2916a2.1406,2.1406,0,0,0-2.9612-.0007l-4.6949,4.6943L64.8622,45.0628M41.3605,77.8535A7.783,7.783,0,0,0,46.8994,75.56L61,61.4588c8.5743-8.5737,3.36-13.9851,3.1345-14.2121L52.2888,35.4008l-.6874-.6881a7.2285,7.2285,0,0,0-4.8268-1.7448c-2.99,0-6.1487,1.642-9.3853,4.8793l-14.1016,14.1a7.846,7.846,0,0,0,0,11.0783L35.823,75.561a7.7819,7.7819,0,0,0,5.5375,2.2925M75.105,20.92c-2.2888,0-6.1643,2.02-11.8369,6.1705a4.946,4.946,0,0,0-6.8051.183l-4.32,4.3189a10.464,10.464,0,0,0-5.3689-1.4772c-3.7747,0-7.6114,1.9227-11.4034,5.7147l-14.1,14.1a10.703,10.703,0,0,0,0,15.1138L33.8055,77.5791a10.6877,10.6877,0,0,0,15.1111-.0011L63.0178,63.4762c7.8306-7.8312,5.8569-14.003,4.2238-16.7585l4.3337-4.3329a4.9518,4.9518,0,0,0,.1591-6.8315c3.7711-5.3713,7.5854-11.6239,5.28-13.9292A2.5917,2.5917,0,0,0,75.105,20.92ZM65.887,29.7a50.9408,50.9408,0,0,1,7.8951-4.8116,51.4243,51.4243,0,0,1-4.667,8.0383L65.887,29.7Zm-10.98,4.2852,4.1344-4.1339a1.349,1.349,0,0,1,1.84,0l8.1166,8.1141a1.3053,1.3053,0,0,1,0,1.842l-4.135,4.1345-9.9554-9.9566ZM41.3605,77.0608A6.9938,6.9938,0,0,1,36.3834,75L23.8482,62.4652a7.0517,7.0517,0,0,1,0-9.9575l14.1013-14.1c3.083-3.0836,6.0521-4.6471,8.8249-4.6471a6.4883,6.4883,0,0,1,4.2794,1.5253l.6741.6751L63.5743,47.8071c.2.2019,4.8652,5.0922-3.1345,13.0912L46.3389,74.9992a6.9964,6.9964,0,0,1-4.9784,2.0616Z" style="fill: #fff"/>
      </g>
      <g>
        <path d="M43.4907,68.6533a4.426,4.426,0,0,1-3.1513-1.3061l-8.8389-8.8384a4.4536,4.4536,0,0,1,0-6.3037l7.7324-7.7329a4.4564,4.4564,0,0,1,6.3042,0l8.8389,8.8383a4.46,4.46,0,0,1,0,6.3038l-7.7344,7.7329A4.4275,4.4275,0,0,1,43.4907,68.6533ZM42.3848,45.832a1.7781,1.7781,0,0,0-1.2671.5249l-7.7329,7.7325a1.7917,1.7917,0,0,0,0,2.5346l8.84,8.8379a1.8438,1.8438,0,0,0,2.5332,0L52.4912,57.73a1.7955,1.7955,0,0,0,0-2.5352l-8.8389-8.8384A1.78,1.78,0,0,0,42.3848,45.832Z" style="fill: #fff"/>
        <path d="M42.3849,43.5625a4.0336,4.0336,0,0,1,2.8719,1.19l8.8388,8.8382a4.0631,4.0631,0,0,1,0,5.7432l-7.7343,7.733a4.0584,4.0584,0,0,1-5.7419,0l-8.8388-8.8382a4.0585,4.0585,0,0,1,0-5.7432l7.7324-7.733a4.0311,4.0311,0,0,1,2.8719-1.19m1.1052,22.8a2.1851,2.1851,0,0,0,1.5475-.62L52.7712,58.01a2.191,2.191,0,0,0,0-3.0957l-8.8388-8.8382a2.188,2.188,0,0,0-3.095.0006l-7.733,7.7324a2.1881,2.1881,0,0,0,0,3.0957l8.8394,8.8375a2.1812,2.1812,0,0,0,1.5463.62M42.3849,42.77a4.8183,4.8183,0,0,0-3.4329,1.4225L31.22,51.925a4.8509,4.8509,0,0,0,0,6.8646l8.8384,8.8377a4.8511,4.8511,0,0,0,6.8628,0l7.7343-7.733a4.8557,4.8557,0,0,0,0-6.8642l-8.8388-8.8382a4.8229,4.8229,0,0,0-3.4324-1.422ZM43.49,65.57a1.395,1.395,0,0,1-.9856-.3874l-8.84-8.8379a1.3957,1.3957,0,0,1,.0005-1.9751l7.7325-7.7319a1.3957,1.3957,0,0,1,1.9742-.0006l8.8388,8.8382A1.3983,1.3983,0,0,1,52.21,57.45l-7.7331,7.7319a1.3982,1.3982,0,0,1-.9871.3877Z" style="fill: #fff"/>
      </g>
    </g>
    <g>
      <path d="M76.454,22.1845c-1.4815-1.4809-5.9475.5284-13.2595,5.9443L62.9,27.8333a4.1529,4.1529,0,0,0-5.8758,0l-4.7731,4.7719a9.568,9.568,0,0,0-5.4768-1.6976c-3.5574,0-7.2053,1.845-10.8429,5.4826l-14.1,14.1a9.9087,9.9087,0,0,0,0,13.9929L34.3661,77.0186a9.8949,9.8949,0,0,0,13.99-.0013L62.4573,62.9158c8.0486-8.0493,5.2284-14.1785,3.7746-16.3093l4.7829-4.7823a4.1587,4.1587,0,0,0,0-5.877l-.31-.31C75.9852,28.1883,77.9265,23.657,76.454,22.1845ZM61,61.4588,46.8994,75.56a7.8342,7.8342,0,0,1-11.0764.0013L23.2877,63.0257a7.846,7.846,0,0,1,0-11.0783l14.1016-14.1c3.2366-3.2373,6.395-4.8793,9.3853-4.8793a7.2285,7.2285,0,0,1,4.8268,1.7448l.6874.6881,11.846,11.8459C64.36,47.4737,69.5746,52.8851,61,61.4588Zm8.5575-21.0909-4.6955,4.6949L53.7859,33.9852l4.6949-4.6943a2.1406,2.1406,0,0,1,2.9612.0007l8.1158,8.1132A2.0978,2.0978,0,0,1,69.5578,40.3679Zm-.33-6.2081-4.5591-4.5572c4.528-3.3078,8.9487-5.8466,10.2673-5.8919C74.9175,25.0351,72.4575,29.5315,69.2274,34.16Z" style="fill: #fff"/>
      <path d="M45.2568,44.7524a4.0607,4.0607,0,0,0-5.7438,0l-7.7324,7.733a4.0585,4.0585,0,0,0,0,5.7432L40.62,67.0668a4.0584,4.0584,0,0,0,5.7419,0l7.7343-7.733a4.0631,4.0631,0,0,0,0-5.7432ZM52.7713,58.01l-7.7337,7.7324a2.24,2.24,0,0,1-3.0937,0l-8.84-8.8375a2.1881,2.1881,0,0,1,0-3.0957l7.733-7.7324a2.188,2.188,0,0,1,3.095-.0006l8.8389,8.8382a2.1911,2.1911,0,0,1,0,3.0956Z" style="fill: #fff"/>
    </g>
  </g>
</svg>
